<svg xmlns="http://www.w3.org/2000/svg" viewBox="0 0 1000 800" role="img" aria-labelledby="title desc">
  <title id="title">Default menu item image</title>
  <desc id="desc">A warm cafe tabletop with a plate, coffee cup, and pastry shapes.</desc>
  <defs>
    <linearGradient id="bg" x1="0" x2="1" y1="0" y2="1">
      <stop offset="0" stop-color="#f7efe4"/>
      <stop offset="0.55" stop-color="#eef6ea"/>
      <stop offset="1" stop-color="#d7ead5"/>
    </linearGradient>
    <linearGradient id="table" x1="0" x2="0" y1="0" y2="1">
      <stop offset="0" stop-color="#c99b66"/>
      <stop offset="1" stop-color="#8b5e38"/>
    </linearGradient>
    <filter id="soft-shadow" x="-20%" y="-20%" width="140%" height="140%">
      <feDropShadow dx="0" dy="18" stdDeviation="22" flood-color="#3f2b1c" flood-opacity="0.22"/>
    </filter>
  </defs>
  <rect width="1000" height="800" fill="url(#bg)"/>
  <circle cx="160" cy="140" r="150" fill="#a4d8a6" opacity="0.28"/>
  <circle cx="840" cy="180" r="120" fill="#ffffff" opacity="0.42"/>
  <circle cx="805" cy="660" r="180" fill="#a4d8a6" opacity="0.18"/>
  <path d="M0 490c155-45 322-54 500-28s339 18 500-24v362H0z" fill="url(#table)"/>
  <g filter="url(#soft-shadow)">
    <ellipse cx="500" cy="505" rx="260" ry="105" fill="#fffaf2"/>
    <ellipse cx="500" cy="505" rx="188" ry="72" fill="#f4eadc"/>
    <ellipse cx="500" cy="505" rx="126" ry="45" fill="#fffaf2"/>
  </g>
  <g filter="url(#soft-shadow)">
    <ellipse cx="680" cy="382" rx="105" ry="48" fill="#efe3d0"/>
    <path d="M590 350h170v120c0 48-38 88-85 88s-85-40-85-88z" fill="#fffaf2"/>
    <ellipse cx="675" cy="350" rx="85" ry="34" fill="#fffaf2"/>
    <ellipse cx="675" cy="350" rx="62" ry="22" fill="#6d3f24"/>
    <path d="M756 392c47 0 76 25 76 61 0 34-29 59-72 59h-16v-40h17c18 0 30-8 30-20 0-13-13-22-32-22h-3z" fill="#fffaf2"/>
  </g>
  <g filter="url(#soft-shadow)">
    <path d="M267 402c37-84 153-75 179 8 20 65-24 122-90 122-72 0-119-62-89-130z" fill="#d79a4e"/>
    <path d="M291 399c45 26 94 34 143 13 7 48-28 89-78 89-49 0-83-42-65-102z" fill="#efbd76"/>
    <path d="M304 392c32-37 83-40 119-5-42 18-82 15-119 5z" fill="#fff4df" opacity="0.45"/>
  </g>
  <g fill="#f7d7a1" opacity="0.85">
    <circle cx="407" cy="585" r="11"/>
    <circle cx="449" cy="610" r="7"/>
    <circle cx="538" cy="585" r="8"/>
    <circle cx="592" cy="612" r="10"/>
    <circle cx="345" cy="585" r="6"/>
  </g>
  <g fill="none" stroke="#ffffff" stroke-linecap="round" stroke-width="12" opacity="0.55">
    <path d="M615 255c-24-38 22-55 0-91"/>
    <path d="M677 245c-24-38 22-55 0-91"/>
    <path d="M737 260c-20-32 18-47 0-78"/>
  </g>
</svg>
